<?xml version="1.0" standalone="no"?>
<!DOCTYPE svg PUBLIC "-//W3C//DTD SVG 20010904//EN"
 "http://www.w3.org/TR/2001/REC-SVG-20010904/DTD/svg10.dtd">
<svg version="1.0" xmlns="http://www.w3.org/2000/svg"
 width="746.000000pt" height="693.000000pt" viewBox="0 0 746.000000 693.000000"
 preserveAspectRatio="xMidYMid meet">

<g transform="translate(0.000000,693.000000) scale(0.100000,-0.100000)"
fill="#03256c" stroke="none">
<path d="M0 5070 l0 -1580 3730 0 3730 0 0 1580 0 1580 -3730 0 -3730 0 0
-1580z m1150 940 c41 -5 101 -19 133 -31 l57 -21 0 -119 c0 -66 -4 -119 -8
-119 -5 0 -33 13 -63 30 -65 35 -141 55 -258 70 -100 12 -237 -7 -310 -43 -53
-27 -112 -86 -128 -130 -17 -46 -16 -142 2 -184 36 -86 91 -131 283 -230 352
-183 446 -257 520 -410 34 -72 34 -73 30 -190 -4 -145 -26 -200 -114 -290
-111 -113 -285 -172 -506 -173 -142 0 -329 36 -425 83 l-43 21 0 123 c0 71 4
123 9 123 6 0 30 -14 55 -30 102 -69 296 -123 436 -122 242 3 365 93 364 267
-1 149 -67 215 -371 373 -105 55 -217 118 -249 140 -160 108 -234 232 -234
392 0 236 169 410 450 465 79 15 268 18 370 5z m4490 -13 c30 -9 67 -20 83
-26 l27 -11 0 -120 c0 -66 -2 -120 -3 -120 -2 0 -30 13 -63 30 -125 62 -301
88 -437 64 -126 -21 -200 -63 -246 -138 -27 -44 -38 -141 -21 -192 33 -99 98
-152 332 -273 208 -107 308 -173 384 -252 106 -112 143 -230 123 -388 -11 -89
-38 -147 -103 -218 -109 -120 -294 -184 -529 -182 -137 0 -346 43 -417 85
l-35 20 -3 114 c-3 120 4 145 35 118 49 -43 193 -102 303 -124 155 -30 334
-13 420 41 112 70 144 238 67 352 -52 77 -112 117 -392 263 -214 112 -330 207
-383 312 -13 26 -27 83 -33 131 -10 72 -9 97 5 160 42 186 211 322 458 367 77
13 362 5 428 -13z m1375 -7 c39 -12 76 -27 83 -32 13 -12 18 -223 4 -232 -4
-2 -40 11 -80 30 -120 57 -293 82 -420 59 -191 -33 -276 -113 -276 -260 0 -82
20 -129 81 -186 50 -48 91 -72 281 -171 243 -126 345 -201 421 -312 93 -135
92 -347 -4 -486 -50 -73 -84 -103 -170 -148 -110 -57 -231 -82 -395 -81 -132
0 -332 39 -411 80 l-39 19 0 125 c0 113 7 145 25 116 3 -5 24 -20 48 -33 203
-114 499 -143 654 -66 147 73 180 267 67 396 -51 58 -118 102 -299 197 -288
149 -389 228 -449 347 -53 107 -53 276 0 381 34 66 135 167 200 200 137 70
232 87 444 82 134 -3 178 -7 235 -25z m-5215 -4 c0 -4 23 -90 70 -256 72 -259
128 -462 150 -545 11 -38 29 -104 40 -145 12 -41 32 -113 45 -160 13 -47 35
-128 50 -180 40 -139 44 -161 46 -205 0 -33 5 -24 25 55 13 52 38 142 55 200
17 58 40 137 50 175 11 39 31 106 44 150 13 44 37 127 54 185 45 160 110 386
136 475 13 44 33 114 45 155 12 41 23 81 25 88 3 8 34 12 108 12 l105 0 10
-37 c5 -21 19 -72 30 -113 23 -84 55 -199 102 -370 17 -63 40 -146 50 -185 11
-38 28 -101 39 -140 56 -201 116 -424 145 -537 l32 -127 26 112 c29 120 63
248 183 697 42 157 85 317 95 355 19 74 61 231 81 303 l11 42 114 0 c89 0 114
-3 114 -14 0 -15 -28 -116 -130 -471 -62 -217 -69 -242 -100 -355 -17 -63 -35
-126 -40 -140 -5 -14 -25 -86 -45 -160 -20 -74 -40 -146 -45 -160 -5 -14 -25
-86 -45 -160 -21 -74 -49 -178 -64 -230 l-27 -95 -126 -3 -125 -3 -11 28 c-6
15 -25 80 -42 143 -43 160 -71 259 -145 520 -38 133 -68 240 -99 350 -15 52
-35 124 -46 160 -28 94 -50 189 -50 211 0 38 -17 9 -24 -40 -3 -27 -15 -75
-25 -107 -11 -33 -35 -120 -56 -194 -20 -74 -40 -146 -45 -160 -5 -14 -25 -86
-45 -160 -20 -74 -40 -146 -45 -160 -5 -14 -23 -77 -40 -140 -17 -63 -40 -144
-50 -180 -11 -36 -32 -110 -48 -165 l-29 -100 -126 -3 c-113 -2 -126 -1 -131
15 -3 10 -16 56 -30 103 -13 47 -41 141 -61 210 -20 69 -52 177 -70 240 -18
63 -44 153 -58 200 -14 47 -37 124 -51 173 -14 48 -38 126 -52 175 -14 48 -34
116 -44 152 -9 36 -24 88 -33 115 -9 28 -30 100 -47 160 -18 61 -38 128 -45
150 -7 22 -15 52 -19 68 l-6 27 120 0 c66 0 120 -2 120 -4z m2560 -891 l0
-895 -105 0 -105 0 0 895 0 895 105 0 105 0 0 -895z"/>
<path d="M300 2759 c0 -11 12 -48 185 -554 64 -187 145 -425 180 -530 36 -104
102 -300 148 -435 l83 -245 226 -3 c208 -2 226 -1 231 15 5 18 28 84 167 483
40 113 82 237 95 275 13 39 64 189 115 335 51 146 102 297 115 335 13 39 43
127 68 197 25 70 42 129 39 132 -3 3 -94 6 -203 6 l-197 0 -20 -62 c-11 -35
-32 -103 -47 -153 -15 -49 -35 -117 -45 -150 -10 -33 -29 -98 -43 -145 -33
-113 -75 -251 -97 -325 -23 -77 -64 -214 -85 -285 -29 -96 -62 -224 -69 -263
-4 -21 -11 -35 -15 -33 -4 3 -13 38 -20 78 -7 40 -21 98 -31 128 -10 30 -33
105 -50 165 -18 61 -38 128 -45 150 -8 22 -28 90 -45 150 -18 61 -40 137 -50
170 -10 33 -30 101 -45 150 -40 133 -63 208 -84 278 -11 34 -25 81 -31 105
l-11 42 -209 0 c-141 0 -210 -3 -210 -11z"/>
<path d="M2180 1880 l0 -890 195 0 195 0 0 890 0 890 -195 0 -195 0 0 -890z"/>
<path d="M2820 2610 l0 -160 250 0 250 0 0 -730 0 -730 200 0 200 0 0 730 0
730 255 0 256 0 -3 158 -3 157 -702 3 -703 2 0 -160z"/>
<path d="M4712 2653 c-110 -304 -267 -735 -292 -803 -70 -194 -255 -702 -277
-760 -14 -36 -27 -73 -30 -83 -5 -16 8 -17 208 -15 l213 3 49 155 c27 85 56
174 64 198 l16 42 317 0 317 0 21 -57 c11 -32 40 -121 64 -198 l45 -140 211
-3 c134 -1 212 1 212 7 0 9 -85 254 -141 409 -35 95 -55 153 -204 572 -81 228
-156 439 -166 468 -10 28 -27 76 -38 105 -10 28 -31 88 -47 132 l-29 80 -235
3 -235 2 -43 -117z m278 -224 c0 -44 52 -219 176 -597 24 -73 44 -135 44 -138
0 -2 -104 -4 -231 -4 l-231 0 7 33 c4 17 27 91 50 162 100 306 145 453 151
495 3 25 7 51 10 58 6 20 24 14 24 -9z"/>
<path d="M6100 2765 c0 -3 0 -402 0 -887 l0 -883 525 -3 526 -2 -3 157 -3 158
-327 3 -328 2 -2 728 -3 727 -192 3 c-106 1 -193 0 -193 -3z"/>
<path d="M0 140 l0 -140 3730 0 3730 0 0 140 0 140 -3730 0 -3730 0 0 -140z"/>
</g>
</svg>
